<mxfile host="app.diagrams.net" agent="Mozilla/5.0 (Windows NT 10.0; Win64; x64) AppleWebKit/537.36 (KHTML, like Gecko) Chrome/140.0.0.0 Safari/537.36" version="28.2.3">
  <diagram name="Page-1" id="u0P4QRKRyGHm9rGHCOAn">
    <mxGraphModel dx="2076" dy="722" grid="1" gridSize="10" guides="1" tooltips="1" connect="1" arrows="1" fold="1" page="1" pageScale="1" pageWidth="850" pageHeight="1100" math="0" shadow="0">
      <root>
        <mxCell id="0" />
        <mxCell id="1" parent="0" />
        <mxCell id="nDwNAqRTzEp9K3lgADBv-33" style="edgeStyle=orthogonalEdgeStyle;rounded=0;orthogonalLoop=1;jettySize=auto;html=1;entryX=0.5;entryY=0;entryDx=0;entryDy=0;exitX=0.239;exitY=0.916;exitDx=0;exitDy=0;exitPerimeter=0;" edge="1" parent="1" source="nDwNAqRTzEp9K3lgADBv-1" target="nDwNAqRTzEp9K3lgADBv-23">
          <mxGeometry relative="1" as="geometry" />
        </mxCell>
        <mxCell id="nDwNAqRTzEp9K3lgADBv-36" style="edgeStyle=orthogonalEdgeStyle;rounded=0;orthogonalLoop=1;jettySize=auto;html=1;exitX=0.5;exitY=1;exitDx=0;exitDy=0;" edge="1" parent="1" source="nDwNAqRTzEp9K3lgADBv-1" target="nDwNAqRTzEp9K3lgADBv-5">
          <mxGeometry relative="1" as="geometry" />
        </mxCell>
        <mxCell id="nDwNAqRTzEp9K3lgADBv-40" style="edgeStyle=orthogonalEdgeStyle;rounded=0;orthogonalLoop=1;jettySize=auto;html=1;entryX=0;entryY=0.5;entryDx=0;entryDy=0;" edge="1" parent="1" source="nDwNAqRTzEp9K3lgADBv-1" target="nDwNAqRTzEp9K3lgADBv-24">
          <mxGeometry relative="1" as="geometry" />
        </mxCell>
        <mxCell id="nDwNAqRTzEp9K3lgADBv-1" value="Citizen" style="rounded=0;whiteSpace=wrap;html=1;perimeterSpacing=7;fontSize=18;textShadow=1;" vertex="1" parent="1">
          <mxGeometry x="130" y="50" width="160" height="80" as="geometry" />
        </mxCell>
        <mxCell id="nDwNAqRTzEp9K3lgADBv-3" value="Municipal Corporation" style="rounded=0;whiteSpace=wrap;html=1;perimeterSpacing=7;fontSize=18;textShadow=1;" vertex="1" parent="1">
          <mxGeometry x="670" y="60" width="160" height="80" as="geometry" />
        </mxCell>
        <mxCell id="nDwNAqRTzEp9K3lgADBv-32" value="" style="group" vertex="1" connectable="0" parent="1">
          <mxGeometry x="-40" y="550" width="810" height="100" as="geometry" />
        </mxCell>
        <mxCell id="nDwNAqRTzEp9K3lgADBv-9" value="&lt;font style=&quot;font-size: 16px;&quot;&gt;Issue Data Store&lt;/font&gt;" style="shape=datastore;whiteSpace=wrap;html=1;" vertex="1" parent="nDwNAqRTzEp9K3lgADBv-32">
          <mxGeometry x="220" width="140" height="100" as="geometry" />
        </mxCell>
        <mxCell id="nDwNAqRTzEp9K3lgADBv-10" value="Feedback Data Store" style="shape=datastore;whiteSpace=wrap;html=1;fontSize=16;" vertex="1" parent="nDwNAqRTzEp9K3lgADBv-32">
          <mxGeometry x="670" width="140" height="100" as="geometry" />
        </mxCell>
        <mxCell id="nDwNAqRTzEp9K3lgADBv-30" value="Notification Data Store" style="shape=datastore;whiteSpace=wrap;html=1;fontSize=16;" vertex="1" parent="nDwNAqRTzEp9K3lgADBv-32">
          <mxGeometry x="445" width="140" height="100" as="geometry" />
        </mxCell>
        <mxCell id="nDwNAqRTzEp9K3lgADBv-31" value="User Data Store" style="shape=datastore;whiteSpace=wrap;html=1;fontSize=16;" vertex="1" parent="nDwNAqRTzEp9K3lgADBv-32">
          <mxGeometry width="140" height="100" as="geometry" />
        </mxCell>
        <mxCell id="nDwNAqRTzEp9K3lgADBv-34" style="edgeStyle=orthogonalEdgeStyle;rounded=0;orthogonalLoop=1;jettySize=auto;html=1;entryX=0.5;entryY=0;entryDx=0;entryDy=0;" edge="1" parent="1" source="nDwNAqRTzEp9K3lgADBv-23" target="nDwNAqRTzEp9K3lgADBv-4">
          <mxGeometry relative="1" as="geometry" />
        </mxCell>
        <mxCell id="nDwNAqRTzEp9K3lgADBv-23" value="&lt;font style=&quot;font-size: 11px;&quot;&gt;Authentication&amp;nbsp;&lt;/font&gt;&lt;div&gt;&lt;font style=&quot;font-size: 11px;&quot;&gt;and&lt;/font&gt;&lt;/div&gt;&lt;div&gt;&lt;font style=&quot;font-size: 11px;&quot;&gt;Authorization&lt;/font&gt;&lt;/div&gt;" style="ellipse;whiteSpace=wrap;html=1;aspect=fixed;fontSize=13;" vertex="1" parent="1">
          <mxGeometry x="10" y="210" width="100" height="100" as="geometry" />
        </mxCell>
        <mxCell id="nDwNAqRTzEp9K3lgADBv-35" style="edgeStyle=orthogonalEdgeStyle;rounded=0;orthogonalLoop=1;jettySize=auto;html=1;" edge="1" parent="1" source="nDwNAqRTzEp9K3lgADBv-4" target="nDwNAqRTzEp9K3lgADBv-31">
          <mxGeometry relative="1" as="geometry" />
        </mxCell>
        <mxCell id="nDwNAqRTzEp9K3lgADBv-37" style="edgeStyle=orthogonalEdgeStyle;rounded=0;orthogonalLoop=1;jettySize=auto;html=1;exitX=0.5;exitY=1;exitDx=0;exitDy=0;" edge="1" parent="1" source="nDwNAqRTzEp9K3lgADBv-5" target="nDwNAqRTzEp9K3lgADBv-9">
          <mxGeometry relative="1" as="geometry" />
        </mxCell>
        <mxCell id="nDwNAqRTzEp9K3lgADBv-41" style="edgeStyle=orthogonalEdgeStyle;rounded=0;orthogonalLoop=1;jettySize=auto;html=1;entryX=0;entryY=0.5;entryDx=0;entryDy=0;" edge="1" parent="1" source="nDwNAqRTzEp9K3lgADBv-5" target="nDwNAqRTzEp9K3lgADBv-3">
          <mxGeometry relative="1" as="geometry">
            <Array as="points">
              <mxPoint x="270" y="260" />
              <mxPoint x="270" y="190" />
              <mxPoint x="593" y="190" />
            </Array>
          </mxGeometry>
        </mxCell>
        <mxCell id="nDwNAqRTzEp9K3lgADBv-5" value="Issue Reporting" style="ellipse;whiteSpace=wrap;html=1;aspect=fixed;fontSize=13;" vertex="1" parent="1">
          <mxGeometry x="150" y="210" width="100" height="100" as="geometry" />
        </mxCell>
        <mxCell id="nDwNAqRTzEp9K3lgADBv-4" value="User Management" style="ellipse;whiteSpace=wrap;html=1;aspect=fixed;fontSize=13;" vertex="1" parent="1">
          <mxGeometry x="-80" y="380" width="100" height="100" as="geometry" />
        </mxCell>
        <mxCell id="nDwNAqRTzEp9K3lgADBv-44" style="edgeStyle=orthogonalEdgeStyle;rounded=0;orthogonalLoop=1;jettySize=auto;html=1;" edge="1" parent="1" source="nDwNAqRTzEp9K3lgADBv-6" target="nDwNAqRTzEp9K3lgADBv-7">
          <mxGeometry relative="1" as="geometry" />
        </mxCell>
        <mxCell id="nDwNAqRTzEp9K3lgADBv-48" style="edgeStyle=orthogonalEdgeStyle;rounded=0;orthogonalLoop=1;jettySize=auto;html=1;" edge="1" parent="1" source="nDwNAqRTzEp9K3lgADBv-6" target="nDwNAqRTzEp9K3lgADBv-30">
          <mxGeometry relative="1" as="geometry" />
        </mxCell>
        <mxCell id="nDwNAqRTzEp9K3lgADBv-6" value="&lt;font style=&quot;font-size: 11px;&quot;&gt;Issue Resolution Management&lt;/font&gt;" style="ellipse;whiteSpace=wrap;html=1;aspect=fixed;fontSize=13;" vertex="1" parent="1">
          <mxGeometry x="395" y="340" width="100" height="100" as="geometry" />
        </mxCell>
        <mxCell id="nDwNAqRTzEp9K3lgADBv-7" value="Analytics &amp;amp; Reporting" style="ellipse;whiteSpace=wrap;html=1;aspect=fixed;fontSize=13;" vertex="1" parent="1">
          <mxGeometry x="680" y="340" width="100" height="100" as="geometry" />
        </mxCell>
        <mxCell id="nDwNAqRTzEp9K3lgADBv-39" style="edgeStyle=orthogonalEdgeStyle;rounded=0;orthogonalLoop=1;jettySize=auto;html=1;" edge="1" parent="1" source="nDwNAqRTzEp9K3lgADBv-24" target="nDwNAqRTzEp9K3lgADBv-6">
          <mxGeometry relative="1" as="geometry" />
        </mxCell>
        <mxCell id="nDwNAqRTzEp9K3lgADBv-24" value="&lt;font style=&quot;font-size: 11px;&quot;&gt;Notifaction&lt;/font&gt;&lt;div&gt;&lt;font style=&quot;font-size: 11px;&quot;&gt;System&lt;/font&gt;&lt;/div&gt;" style="ellipse;whiteSpace=wrap;html=1;aspect=fixed;fontSize=13;" vertex="1" parent="1">
          <mxGeometry x="395" y="210" width="100" height="100" as="geometry" />
        </mxCell>
        <mxCell id="nDwNAqRTzEp9K3lgADBv-46" style="edgeStyle=orthogonalEdgeStyle;rounded=0;orthogonalLoop=1;jettySize=auto;html=1;entryX=1;entryY=0.7;entryDx=0;entryDy=0;" edge="1" parent="1" source="nDwNAqRTzEp9K3lgADBv-25" target="nDwNAqRTzEp9K3lgADBv-10">
          <mxGeometry relative="1" as="geometry" />
        </mxCell>
        <mxCell id="nDwNAqRTzEp9K3lgADBv-25" value="Feedback&amp;nbsp;&lt;div&gt;And&amp;nbsp;&lt;/div&gt;&lt;div&gt;Rating&lt;/div&gt;" style="ellipse;whiteSpace=wrap;html=1;aspect=fixed;fontSize=13;" vertex="1" parent="1">
          <mxGeometry x="950" y="310" width="100" height="100" as="geometry" />
        </mxCell>
        <mxCell id="nDwNAqRTzEp9K3lgADBv-45" style="edgeStyle=orthogonalEdgeStyle;rounded=0;orthogonalLoop=1;jettySize=auto;html=1;entryX=0.491;entryY=0.909;entryDx=0;entryDy=0;entryPerimeter=0;" edge="1" parent="1" source="nDwNAqRTzEp9K3lgADBv-7" target="nDwNAqRTzEp9K3lgADBv-3">
          <mxGeometry relative="1" as="geometry" />
        </mxCell>
        <mxCell id="nDwNAqRTzEp9K3lgADBv-47" style="edgeStyle=orthogonalEdgeStyle;rounded=0;orthogonalLoop=1;jettySize=auto;html=1;entryX=0.402;entryY=0.996;entryDx=0;entryDy=0;entryPerimeter=0;" edge="1" parent="1" source="nDwNAqRTzEp9K3lgADBv-10" target="nDwNAqRTzEp9K3lgADBv-7">
          <mxGeometry relative="1" as="geometry" />
        </mxCell>
      </root>
    </mxGraphModel>
  </diagram>
</mxfile>
